<?xml version="1.0" standalone="no"?>
<!DOCTYPE svg PUBLIC "-//W3C//DTD SVG 20010904//EN"
 "http://www.w3.org/TR/2001/REC-SVG-20010904/DTD/svg10.dtd">
<svg version="1.0" xmlns="http://www.w3.org/2000/svg"
 width="269.000000pt" height="269.000000pt" viewBox="0 0 269.000000 269.000000"
 preserveAspectRatio="xMidYMid meet">
<metadata>
Created by potrace 1.11, written by Peter Selinger 2001-2013
</metadata>
<g transform="translate(0.000000,269.000000) scale(0.100000,-0.100000)"
fill="#000000" stroke="none">
<path d="M1235 2650 c-530 -45 -980 -431 -1114 -955 -111 -438 25 -909 353
-1222 337 -323 797 -432 1246 -297 445 135 788 525 871 994 20 110 17 345 -5
455 -78 395 -324 719 -681 898 -203 101 -439 146 -670 127z m233 -300 c48 -27
242 -139 432 -247 l345 -198 3 -506 2 -506 -127 -75 c-71 -41 -243 -141 -383
-222 -140 -82 -277 -161 -303 -177 -27 -16 -53 -29 -58 -29 -6 0 -59 28 -117
62 -162 93 -360 206 -532 304 -85 48 -172 98 -192 111 l-38 23 0 504 0 504 73
43 c39 23 128 74 197 114 193 111 438 254 515 301 39 23 76 43 83 43 7 1 52
-21 100 -49z"/>
<path d="M1270 1971 c-204 -55 -363 -219 -416 -431 -23 -91 -15 -232 19 -321
63 -167 184 -289 354 -355 60 -24 82 -27 188 -28 131 -1 189 14 305 78 59 33
160 128 183 173 l15 28 -120 72 -121 73 -59 -55 c-121 -112 -282 -112 -399 1
-61 59 -84 117 -84 209 0 70 4 86 29 130 58 99 132 146 242 153 62 4 79 1 130
-22 33 -15 75 -45 99 -71 l41 -45 114 66 c63 36 119 70 124 75 13 12 -66 112
-126 160 -66 52 -148 93 -225 113 -79 21 -211 19 -293 -3z"/>
</g>
</svg>
